<?xml version="1.0" encoding="UTF-8" standalone="no"?>
<!DOCTYPE svg PUBLIC "-//W3C//DTD SVG 1.1//EN" "http://www.w3.org/Graphics/SVG/1.1/DTD/svg11.dtd">
<svg width="100%" height="100%" viewBox="0 0 2048 2048" version="1.1" xmlns="http://www.w3.org/2000/svg" xmlns:xlink="http://www.w3.org/1999/xlink" xml:space="preserve" xmlns:serif="http://www.serif.com/" style="fill-rule:evenodd;clip-rule:evenodd;stroke-linejoin:round;stroke-miterlimit:2;">
    <rect id="_403" serif:id="403" x="0" y="0" width="2048" height="2048" style="fill:none;"/>
    <g id="_4031" serif:id="403">
        <path id="Shield" d="M1238.69,1690.93C1182.64,1730.63 1128.19,1760.57 1079.21,1780.97C1043.8,1795.67 1003.9,1795.67 968.494,1780.97C647.462,1647.16 303.928,1235.52 303.928,639.959C303.928,581.754 339.031,529.248 392.737,507.046L968.794,267.022C1004.22,252.326 1044.08,252.326 1079.51,267.022L1655.56,507.046C1708.97,529.248 1744.07,581.754 1744.07,639.959C1744.07,856.081 1700.87,1041.05 1633.75,1195.89C1586.27,1168 1530.99,1152 1472,1152C1462.04,1152 1452.18,1152.46 1442.47,1153.35C1507.47,1015.63 1547.79,853.733 1551.75,671.763L1024,451.841L1024.3,1594.95C1069.17,1572.64 1112.9,1545.5 1154.71,1513.83C1163.62,1581.9 1193.95,1643.27 1238.69,1690.93Z" style="fill:white;fill-rule:nonzero;"/>
        <g id="Unauthorised" transform="matrix(1.03226,0,0,1.03226,1207.74,1207.74)">
            <path d="M256,8C119,8 8,119 8,256C8,393 119,504 256,504C393,504 504,393 504,256C504,119 393,8 256,8ZM124,296C117.4,296 112,290.6 112,284L112,228C112,221.4 117.4,216 124,216L388,216C394.6,216 400,221.4 400,228L400,284C400,290.6 394.6,296 388,296L124,296Z" style="fill:white;fill-rule:nonzero;"/>
        </g>
    </g>
</svg>
