<?xml version="1.0" encoding="UTF-8" standalone="no"?>
<!DOCTYPE svg PUBLIC "-//W3C//DTD SVG 1.1//EN" "http://www.w3.org/Graphics/SVG/1.1/DTD/svg11.dtd">
<svg width="100%" height="100%" viewBox="0 0 2048 2048" version="1.1" xmlns="http://www.w3.org/2000/svg" xmlns:xlink="http://www.w3.org/1999/xlink" xml:space="preserve" xmlns:serif="http://www.serif.com/" style="fill-rule:evenodd;clip-rule:evenodd;stroke-linejoin:round;stroke-miterlimit:2;">
    <g transform="matrix(1,0,0,1,-2304,0)">
        <g id="_404" serif:id="404" transform="matrix(1,0,0,1,2304,0)">
            <rect x="0" y="0" width="2048" height="2048" style="fill:none;"/>
            <g id="Page" transform="matrix(1,0,0,1,-2304,0)">
                <path d="M3584.07,1728L2932.08,1728C2859.22,1728 2800.1,1668.89 2800.1,1596.03L2800.1,452.249C2800.1,379.388 2859.22,320.275 2932.08,320L3493.24,320C3528.16,320 3561.7,334.022 3586.45,358.767L3503.97,462.972L3503.97,672.206L3713.2,672.206L3817.13,589.447C3841.88,614.193 3855.9,648.011 3855.9,682.929L3855.9,1162.07C3830.36,1155.5 3803.59,1152 3776,1152C3758.27,1152 3740.87,1153.44 3723.92,1156.23L3723.92,804.18L3437.98,804.18C3401.41,804.18 3371.99,774.761 3371.99,738.193L3371.99,452.249L2932.08,452.249L2932.08,1596.03L3480.96,1596.03C3503.13,1648.65 3538.98,1694.13 3584.07,1728" style="fill:white;fill-rule:nonzero;"/>
            </g>
            <g id="Page-Corner" serif:id="Page Corner" transform="matrix(1,0,0,1,-2304,0)">
                <path d="M3817.13,589.447L3855.9,814.903L3360.99,320L3586.45,358.767L3817.13,589.447Z" style="fill:white;fill-rule:nonzero;"/>
            </g>
            <g id="Times" transform="matrix(1.03226,0,0,1.03226,1207.74,1207.74)">
                <path d="M256,8C119,8 8,119 8,256C8,393 119,504 256,504C393,504 504,393 504,256C504,119 393,8 256,8ZM377.6,321.1C382.3,325.8 382.3,333.4 377.6,338.1L338,377.6C333.3,382.3 325.7,382.3 321,377.6L256,312L190.9,377.6C186.2,382.3 178.6,382.3 173.9,377.6L134.4,338C129.7,333.3 129.7,325.7 134.4,321L200,256L134.4,190.9C129.7,186.2 129.7,178.6 134.4,173.9L174,134.3C178.7,129.6 186.3,129.6 191,134.3L256,200L321.1,134.4C325.8,129.7 333.4,129.7 338.1,134.4L377.7,174C382.4,178.7 382.4,186.3 377.7,191L312,256L377.6,321.1Z" style="fill:white;fill-rule:nonzero;"/>
            </g>
        </g>
    </g>
</svg>
