<?xml version="1.0" encoding="UTF-8" standalone="no"?>
<!DOCTYPE svg PUBLIC "-//W3C//DTD SVG 1.1//EN" "http://www.w3.org/Graphics/SVG/1.1/DTD/svg11.dtd">
<svg width="100%" height="100%" viewBox="0 0 2048 2048" version="1.1" xmlns="http://www.w3.org/2000/svg" xmlns:xlink="http://www.w3.org/1999/xlink" xml:space="preserve" xmlns:serif="http://www.serif.com/" style="fill-rule:evenodd;clip-rule:evenodd;stroke-linejoin:round;stroke-miterlimit:2;">
    <g transform="matrix(1,0,0,1,-4608,0)">
        <g id="_500" serif:id="500" transform="matrix(1,0,0,1,4608,0)">
            <rect x="0" y="0" width="2048" height="2048" style="fill:none;"/>
            <g transform="matrix(1,0,0,1,-4608,0)">
                <path d="M5828.92,1273.68C5785.77,1328.2 5760,1397.12 5760,1472C5760,1520.07 5770.62,1565.69 5789.64,1606.59L5049.41,1606.59C5003.44,1606.59 4966.18,1569.33 4966.18,1523.37L4966.18,1356.91C4966.18,1310.94 5003.44,1273.68 5049.41,1273.68L5828.92,1273.68ZM5927.87,1190.45L5049.41,1190.45C5003.44,1190.45 4966.18,1153.19 4966.18,1107.23L4966.18,940.772C4966.18,894.807 5003.44,857.545 5049.41,857.545L6214.59,857.545C6260.56,857.545 6297.82,894.807 6297.82,940.772L6297.82,1107.23C6297.82,1148.07 6268.4,1182.04 6229.61,1189.1C6184.94,1165.42 6134.02,1152 6080,1152C6024.95,1152 5973.12,1165.93 5927.87,1190.45ZM6089.75,961.579C6055.28,961.579 6027.33,989.526 6027.33,1024C6027.33,1058.47 6055.28,1086.42 6089.75,1086.42C6124.23,1086.42 6152.17,1058.47 6152.17,1024C6152.17,989.526 6124.23,961.579 6089.75,961.579ZM5923.3,961.579C5888.82,961.579 5860.88,989.526 5860.88,1024C5860.88,1058.47 5888.82,1086.42 5923.3,1086.42C5957.77,1086.42 5985.72,1058.47 5985.72,1024C5985.72,989.526 5957.77,961.579 5923.3,961.579ZM6214.59,774.317L5049.41,774.317C5003.44,774.317 4966.18,737.055 4966.18,691.09L4966.18,524.635C4966.18,478.67 5003.44,441.407 5049.41,441.407L6214.59,441.407C6260.56,441.407 6297.82,478.67 6297.82,524.635L6297.82,691.09C6297.82,737.055 6260.56,774.317 6214.59,774.317ZM6089.75,545.441C6055.28,545.441 6027.33,573.388 6027.33,607.862C6027.33,642.337 6055.28,670.283 6089.75,670.283C6124.23,670.283 6152.17,642.337 6152.17,607.862C6152.17,573.388 6124.23,545.441 6089.75,545.441ZM5923.3,545.441C5888.82,545.441 5860.88,573.388 5860.88,607.862C5860.88,642.337 5888.82,670.283 5923.3,670.283C5957.77,670.283 5985.72,642.337 5985.72,607.862C5985.72,573.388 5957.77,545.441 5923.3,545.441Z" style="fill:white;fill-rule:nonzero;"/>
            </g>
            <g id="Times" transform="matrix(1.03226,0,0,1.03226,1207.74,1207.74)">
                <path d="M256,8C119,8 8,119 8,256C8,393 119,504 256,504C393,504 504,393 504,256C504,119 393,8 256,8ZM377.6,321.1C382.3,325.8 382.3,333.4 377.6,338.1L338,377.6C333.3,382.3 325.7,382.3 321,377.6L256,312L190.9,377.6C186.2,382.3 178.6,382.3 173.9,377.6L134.4,338C129.7,333.3 129.7,325.7 134.4,321L200,256L134.4,190.9C129.7,186.2 129.7,178.6 134.4,173.9L174,134.3C178.7,129.6 186.3,129.6 191,134.3L256,200L321.1,134.4C325.8,129.7 333.4,129.7 338.1,134.4L377.7,174C382.4,178.7 382.4,186.3 377.7,191L312,256L377.6,321.1Z" style="fill:white;fill-rule:nonzero;"/>
            </g>
        </g>
    </g>
</svg>
