<?xml version="1.0" encoding="UTF-8" standalone="no"?>
<!DOCTYPE svg PUBLIC "-//W3C//DTD SVG 1.1//EN" "http://www.w3.org/Graphics/SVG/1.1/DTD/svg11.dtd">
<svg width="100%" height="100%" viewBox="0 0 40 40" version="1.1" xmlns="http://www.w3.org/2000/svg" xmlns:xlink="http://www.w3.org/1999/xlink" xml:space="preserve" xmlns:serif="http://www.serif.com/" style="fill-rule:evenodd;clip-rule:evenodd;stroke-linejoin:round;stroke-miterlimit:2;">
    <g id="Page-1">
        <g id="Artboard-5">
            <path id="Combined-Shape" d="M0,38.59L2.83,35.76L4.24,37.17L1.41,40L0,40L0,38.59ZM0,1.4L2.83,4.23L4.24,2.82L1.41,0L0,0L0,1.41L0,1.4ZM38.59,40L35.76,37.17L37.17,35.76L40,38.59L40,40L38.59,40ZM40,1.41L37.17,4.24L35.76,2.83L38.59,0L40,0L40,1.41ZM20,18.6L22.83,15.77L24.24,17.18L21.41,20L24.24,22.83L22.83,24.24L20,21.41L17.17,24.24L15.76,22.83L18.59,20L15.76,17.17L17.17,15.76L20,18.59L20,18.6Z" style="fill:white;fill-opacity:0.25;"/>
        </g>
    </g>
</svg>
