<?xml version="1.0" encoding="UTF-8" standalone="no"?>
<!DOCTYPE svg PUBLIC "-//W3C//DTD SVG 1.1//EN" "http://www.w3.org/Graphics/SVG/1.1/DTD/svg11.dtd">
<svg width="100%" height="100%" viewBox="0 0 60 60" version="1.1" xmlns="http://www.w3.org/2000/svg" xmlns:xlink="http://www.w3.org/1999/xlink" xml:space="preserve" xmlns:serif="http://www.serif.com/" style="fill-rule:evenodd;clip-rule:evenodd;stroke-linejoin:round;stroke-miterlimit:2;">
    <g>
        <g>
            <path d="M36,34L36,30L34,30L34,34L30,34L30,36L34,36L34,40L36,40L36,36L40,36L40,34L36,34ZM36,4L36,0L34,0L34,4L30,4L30,6L34,6L34,10L36,10L36,6L40,6L40,4L36,4ZM6,34L6,30L4,30L4,34L0,34L0,36L4,36L4,40L6,40L6,36L10,36L10,34L6,34ZM6,4L6,0L4,0L4,4L0,4L0,6L4,6L4,10L6,10L6,6L10,6L10,4L6,4Z" style="fill:white;fill-opacity:0.25;"/>
        </g>
    </g>
</svg>
